<svg width="312" height="240" viewBox="0 0 312 240" fill="none" xmlns="http://www.w3.org/2000/svg">
<rect width="312" height="240" rx="20" fill="#D8F498"/>
<path d="M82.7775 116.125C96.514 129.865 120.822 133.489 110.476 143.831C100.131 154.174 80.6086 151.419 66.8721 137.678C53.1356 123.938 50.3866 104.415 60.7319 94.0725C71.0773 83.7302 69.041 102.384 82.7775 116.125Z" fill="#AA7E51"/>
<path d="M102.347 104.324C115.055 118.83 118.764 136.151 111.845 142.213C104.926 148.276 89.9982 140.783 77.2895 126.277C64.5807 111.771 55.1333 99.1587 62.0527 93.0965C68.972 87.0343 89.6379 89.8182 102.347 104.324Z" fill="#90C31F"/>
<path d="M93.3189 112.183C95.9882 114.592 100.192 116.649 99.3056 120.133C99.1462 120.76 98.8927 121.362 98.5726 121.93C96.6099 125.413 91.8869 125.411 88.0565 124.266C85.5968 123.531 83.7164 122.684 82.3785 120.049C80.3888 116.13 81.3763 110.309 83.8117 107.835C84.4561 107.18 85.4048 106.918 86.3092 107.078C89.1188 107.574 91.0212 110.109 93.3189 112.183Z" fill="#FFFCCC" fill-opacity="0.64"/>
<path d="M97.8475 108.95C96.2555 110.707 96.3633 112.722 96.2192 112.881C96.0751 113.04 98.3796 112.631 99.9715 110.874C101.563 109.117 101.514 108.217 100.927 107.685C100.341 107.154 99.4394 107.193 97.8475 108.95Z" fill="#FFF100" fill-opacity="0.46"/>
<path d="M93.0367 105.377C91.8512 107.431 92.3818 109.378 92.2744 109.564C92.1671 109.75 94.3335 108.864 95.5189 106.81C96.7044 104.757 96.4658 103.887 95.7804 103.491C95.0949 103.096 94.2222 103.324 93.0367 105.377Z" fill="black"/>
<path d="M86.5609 102.7C86.3156 105.058 87.594 106.62 87.5718 106.834C87.5496 107.047 89.1665 105.355 89.4118 102.997C89.657 100.639 89.0845 99.9414 88.2972 99.8595C87.51 99.7777 86.8062 100.342 86.5609 102.7Z" fill="black"/>
<path d="M78.7587 104.568C80.0041 106.585 81.9702 107.042 82.0829 107.224C82.1957 107.407 82.4431 105.079 81.1977 103.062C79.9522 101.044 79.0732 100.842 78.3997 101.258C77.7261 101.673 77.5133 102.55 78.7587 104.568Z" fill="black"/>
<path d="M75.4921 111.662C77.7423 112.409 79.5426 111.497 79.7463 111.564C79.95 111.632 78.6453 109.689 76.395 108.942C74.1448 108.195 73.3408 108.604 73.0915 109.355C72.8422 110.106 73.2419 110.915 75.4921 111.662Z" fill="black"/>
<path d="M76.4034 119.918C78.7456 120.286 80.3721 119.091 80.5841 119.125C80.7962 119.158 79.1907 117.455 76.8485 117.087C74.5063 116.719 73.7802 117.254 73.6573 118.036C73.5344 118.818 74.0612 119.55 76.4034 119.918Z" fill="black"/>
<path d="M82.2792 126.253C83.4097 124.723 82.9348 122.955 83.0371 122.816C83.1395 122.678 81.1045 123.02 79.9739 124.55C78.8434 126.08 79.0571 126.871 79.6936 127.341C80.3302 127.811 81.1486 127.783 82.2792 126.253Z" fill="black"/>
<path d="M88.5248 129.392C88.9696 127.382 88.0877 125.923 88.128 125.741C88.1683 125.559 86.6726 126.874 86.2278 128.884C85.783 130.895 86.1783 131.546 86.8125 131.687C87.4468 131.827 88.08 131.403 88.5248 129.392Z" fill="black"/>
<path d="M97.949 131.705C97.5384 129.37 95.8808 128.218 95.8437 128.007C95.8065 127.796 94.7155 129.866 95.1261 132.201C95.5367 134.537 96.2784 135.05 97.058 134.913C97.8375 134.776 98.3596 134.04 97.949 131.705Z" fill="black"/>
<path d="M104.379 114.565C102.261 115.63 101.635 117.548 101.443 117.645C101.251 117.741 103.548 118.191 105.667 117.126C107.785 116.061 108.063 115.203 107.708 114.496C107.353 113.789 106.498 113.5 104.379 114.565Z" fill="black"/>
<path d="M105.972 121.605C103.646 121.142 101.972 122.269 101.762 122.227C101.551 122.185 103.086 123.953 105.411 124.416C107.736 124.88 108.484 124.375 108.638 123.598C108.793 122.822 108.297 122.069 105.972 121.605Z" fill="black"/>
<path d="M104.038 128.494C102.845 126.445 100.891 125.938 100.783 125.753C100.675 125.567 100.368 127.888 101.561 129.936C102.754 131.985 103.628 132.21 104.312 131.812C104.996 131.414 105.231 130.543 104.038 128.494Z" fill="black"/>
<path d="M134.252 110.455V113.011H152.324V110.455H134.252ZM134.252 106.135V108.619H152.324V106.135H134.252ZM131.624 104.191H154.988V114.919H131.624V104.191ZM127.34 116.935H159.056V119.167H127.34V116.935ZM143.324 121.435H156.14V123.631H143.324V121.435ZM132.02 121.651H140.912V123.667H132.02V121.651ZM132.02 126.187H140.912V128.203H132.02V126.187ZM147.104 123.451C149.192 128.599 153.8 132.523 159.92 134.035C159.344 134.539 158.624 135.511 158.264 136.159C151.928 134.287 147.284 130.003 144.908 124.099L147.104 123.451ZM155.312 121.435H155.816L156.284 121.327L157.94 122.011C155.564 129.319 149.768 133.819 143.504 135.979C143.216 135.331 142.532 134.359 142.028 133.855C147.788 132.127 153.332 127.915 155.312 121.867V121.435ZM127.016 131.695C130.544 131.407 135.764 130.831 140.84 130.255V132.487C135.98 133.063 130.976 133.675 127.268 134.107L127.016 131.695ZM139.472 117.655H142.064V136.159H139.472V117.655ZM130.436 117.691H132.956V132.343H130.436V117.691ZM182.384 115.207H195.776V117.727H182.384V115.207ZM163.448 106.819H179.324V109.123H163.448V106.819ZM163.052 121.111H179.504V123.451H163.052V121.111ZM162.944 115.063H179.756V117.367H162.944V115.063ZM189.08 116.215H191.708V135.979H189.08V116.215ZM170.108 103.183H172.736V108.007H170.108V103.183ZM170.108 116.935H172.736V136.123H170.108V116.935ZM181.088 105.991L184.4 106.999C184.364 107.287 184.148 107.431 183.644 107.503V118.627C183.644 124.027 182.996 131.335 177.92 136.339C177.596 135.727 176.624 134.827 175.976 134.467C180.584 129.931 181.088 123.703 181.088 118.591V105.991ZM193.148 103.471L195.308 105.451C191.924 106.963 186.884 108.187 182.564 108.943C182.42 108.367 182.06 107.431 181.736 106.891C185.768 106.027 190.52 104.767 193.148 103.471ZM172.484 124.135C173.636 124.927 177.56 128.131 178.46 128.959L176.876 130.975C175.724 129.643 172.34 126.475 171.008 125.359L172.484 124.135ZM165.608 109.771L167.732 109.303C168.488 110.887 169.1 113.011 169.28 114.379L167.012 114.991C166.904 113.587 166.328 111.427 165.608 109.771ZM174.824 109.231L177.272 109.771C176.588 111.571 175.832 113.587 175.184 114.919L173.024 114.415C173.672 112.975 174.428 110.743 174.824 109.231ZM170.144 122.299L172.088 123.055C170.252 127.051 166.94 131.299 164.06 133.531C163.628 132.919 162.836 132.055 162.224 131.623C165.14 129.715 168.416 125.827 170.144 122.299ZM212.624 119.707H228.032V122.083H212.624V119.707ZM212.552 125.971H228.032V128.311H212.552V125.971ZM228.284 104.047L230.912 105.091C229.616 107.467 228.068 110.095 226.772 111.895L224.504 110.923C225.764 109.087 227.42 106.171 228.284 104.047ZM209.888 105.271L212.156 104.263C213.704 106.279 215.324 109.051 215.936 110.887L213.524 112.075C212.948 110.203 211.4 107.395 209.888 105.271ZM210.896 113.335H228.176V115.855H213.56V136.159H210.896V113.335ZM226.844 113.335H229.472V132.775C229.472 134.287 229.148 135.079 228.068 135.547C226.988 135.979 225.188 135.979 222.452 135.979C222.308 135.259 221.912 134.143 221.552 133.387C223.64 133.459 225.548 133.459 226.088 133.459C226.664 133.423 226.844 133.243 226.844 132.775V113.335ZM218.96 103.039H221.66V114.919H218.96V103.039ZM200.312 105.307L201.896 103.435C204.128 104.551 206.828 106.279 208.16 107.611L206.504 109.699C205.244 108.367 202.544 106.495 200.312 105.307ZM198.62 114.919L200.168 113.011C202.4 114.091 205.208 115.819 206.612 117.115L204.992 119.239C203.624 117.943 200.888 116.107 198.62 114.919ZM199.736 134.071C201.5 131.263 203.984 126.511 205.856 122.371L207.872 123.991C206.216 127.843 203.984 132.379 202.076 135.799L199.736 134.071ZM244.016 126.475H246.68V132.415C246.68 133.351 247.004 133.531 248.948 133.531C249.812 133.531 254.348 133.531 255.536 133.531C257.084 133.531 257.336 133.099 257.48 130.039C258.092 130.471 259.208 130.867 259.928 131.011C259.568 135.007 258.776 135.979 255.788 135.979C254.96 135.979 249.524 135.979 248.732 135.979C244.952 135.979 244.016 135.223 244.016 132.451V126.475ZM247.724 125.215L249.704 123.811C251.828 125.215 254.204 127.303 255.284 128.923L253.16 130.435C252.152 128.851 249.812 126.655 247.724 125.215ZM259.352 127.159L261.512 125.827C264.104 128.023 266.948 131.155 268.1 133.459L265.796 134.971C264.68 132.703 261.98 129.463 259.352 127.159ZM239.084 126.187L241.46 127.051C240.56 129.859 239.156 133.027 236.78 134.971L234.584 133.423C236.78 131.695 238.292 128.815 239.084 126.187ZM243.008 113.155V116.143H259.856V113.155H243.008ZM243.008 118.231V121.219H259.856V118.231H243.008ZM243.008 108.151V111.103H259.856V108.151H243.008ZM240.416 105.991H262.556V123.415H240.416V105.991ZM249.992 102.679L253.124 103.219C252.404 104.767 251.54 106.207 250.928 107.251L248.516 106.675C249.056 105.523 249.668 103.831 249.992 102.679Z" fill="black"/>
</svg>
