<svg width="1362" height="2787" viewBox="0 0 1362 2787" fill="none" xmlns="http://www.w3.org/2000/svg">
<g clip-path="url(#clip0_185_31890)">
<rect width="1362" height="2787" fill="#90C31F" fill-opacity="0.5"/>
<path d="M1092.52 220.584C1211.27 339.371 1421.41 370.701 1331.98 460.11C1242.54 549.519 1073.77 525.704 955.02 406.916C836.268 288.129 812.502 119.352 901.938 29.9428C991.373 -59.4664 973.77 101.796 1092.52 220.584Z" fill="#AA7E51"/>
<path d="M1261.69 118.57C1371.56 243.972 1403.63 393.718 1343.81 446.125C1283.99 498.533 1154.94 433.757 1045.07 308.355C935.207 182.953 853.534 73.9167 913.352 21.5091C973.17 -30.8986 1151.83 -6.83181 1261.69 118.57Z" fill="#90C31F"/>
<path d="M1214.19 206.557C1221.13 209.217 1228.06 212.907 1231.4 219.541C1248.17 252.807 1224.37 284.505 1201.1 300.982C1194.36 305.756 1185.62 305.796 1177.84 302.997C1136.2 287.992 1107 289.822 1089.07 254.513C1070.05 217.048 1082.5 159.469 1108.55 143.155C1110.16 142.148 1112.05 141.648 1113.95 141.63C1155.51 141.227 1174.17 191.207 1214.19 206.557Z" fill="#FFFCCC" fill-opacity="0.64"/>
<path d="M1222.8 158.56C1209.04 173.749 1209.97 191.173 1208.72 192.548C1207.48 193.923 1227.4 190.387 1241.16 175.198C1254.93 160.008 1254.5 152.221 1249.43 147.627C1244.35 143.033 1236.56 143.371 1222.8 158.56Z" fill="#FFF100"/>
<path d="M1181.21 127.677C1170.96 145.428 1175.55 162.262 1174.62 163.869C1173.69 165.476 1192.42 157.817 1202.67 140.066C1212.92 122.316 1210.86 114.794 1204.93 111.373C1199 107.952 1191.46 109.926 1181.21 127.677Z" fill="black"/>
<path d="M1125.23 104.53C1123.11 124.917 1134.16 138.419 1133.97 140.264C1133.78 142.11 1147.76 127.48 1149.88 107.093C1152 86.7066 1147.05 80.68 1140.24 79.9721C1133.44 79.2642 1127.35 84.143 1125.23 104.53Z" fill="black"/>
<path d="M1057.78 120.679C1068.54 138.121 1085.54 142.067 1086.51 143.646C1087.49 145.225 1089.63 125.104 1078.86 107.663C1068.09 90.222 1060.49 88.4709 1054.67 92.0652C1048.85 95.6595 1047.01 103.238 1057.78 120.679Z" fill="black"/>
<path d="M1029.54 182.009C1049 188.466 1064.56 180.578 1066.32 181.162C1068.08 181.747 1056.8 164.949 1037.35 158.492C1017.9 152.035 1010.95 155.572 1008.79 162.066C1006.63 168.56 1010.09 175.552 1029.54 182.009Z" fill="black"/>
<path d="M1037.42 253.381C1057.67 256.564 1071.73 246.233 1073.56 246.521C1075.39 246.809 1061.51 232.085 1041.27 228.902C1021.02 225.719 1014.74 230.348 1013.68 237.107C1012.62 243.867 1017.17 250.198 1037.42 253.381Z" fill="black"/>
<path d="M1088.22 308.151C1097.99 294.924 1093.89 279.633 1094.77 278.436C1095.66 277.238 1078.06 280.198 1068.29 293.425C1058.52 306.652 1060.36 313.486 1065.87 317.552C1071.37 321.619 1078.44 321.378 1088.22 308.151Z" fill="black"/>
<path d="M1142.2 335.281C1146.05 317.9 1138.43 305.285 1138.77 303.712C1139.12 302.138 1126.19 313.507 1122.35 330.888C1118.5 348.27 1121.92 353.902 1127.4 355.115C1132.88 356.328 1138.36 352.663 1142.2 335.281Z" fill="black"/>
<path d="M1223.68 355.271C1220.13 335.084 1205.8 325.129 1205.48 323.302C1205.16 321.474 1195.73 339.375 1199.28 359.563C1202.83 379.75 1209.24 384.188 1215.98 383.003C1222.72 381.818 1227.23 375.458 1223.68 355.271Z" fill="black"/>
<path d="M1279.27 207.103C1260.96 216.308 1255.54 232.895 1253.88 233.728C1252.23 234.562 1272.08 238.448 1290.4 229.243C1308.71 220.038 1311.12 212.62 1308.05 206.506C1304.97 200.393 1297.58 197.898 1279.27 207.103Z" fill="black"/>
<path d="M1293.04 267.969C1272.93 263.961 1258.46 273.709 1256.64 273.346C1254.82 272.983 1268.09 288.262 1288.19 292.27C1308.29 296.278 1314.75 291.91 1316.09 285.2C1317.43 278.489 1313.14 271.977 1293.04 267.969Z" fill="black"/>
<path d="M1276.32 327.526C1266 309.814 1249.11 305.432 1248.18 303.829C1247.24 302.225 1244.59 322.284 1254.9 339.996C1265.22 357.708 1272.77 359.654 1278.68 356.21C1284.6 352.767 1286.63 345.238 1276.32 327.526Z" fill="black"/>
<path d="M100.659 545.574C246.359 455.663 326.758 254.577 394.452 364.275C462.146 473.973 398.911 635.788 253.212 725.699C107.512 815.609 -65.4777 799.569 -133.172 689.871C-200.866 580.173 -45.0399 635.485 100.659 545.574Z" fill="#AA7E51"/>
<path d="M39.1782 353.827C189.353 274.281 345.414 277.623 383.357 349.258C421.301 420.893 326.76 533.694 176.585 613.239C26.4097 692.784 -100.914 748.204 -138.858 676.569C-176.802 604.935 -110.997 433.372 39.1782 353.827Z" fill="#90C31F"/>
<path d="M115.43 421.409C119.596 415.259 124.787 409.375 132.006 407.622C169.159 398.601 195.136 429.923 205.986 456.974C209.06 464.641 207.089 473.163 202.569 480.076C177.792 517.967 172.808 547.448 133.505 556.96C91.8534 567.041 37.6225 541.137 27.602 511.446C26.9952 509.648 26.9444 507.694 27.3615 505.843C36.6979 464.406 90.8571 457.684 115.43 421.409Z" fill="#FFFCCC" fill-opacity="0.64"/>
<path d="M69.7153 401.792C81.5516 419.008 99.0529 422.173 100.125 423.732C101.196 425.29 102.365 404.699 90.5284 387.483C78.6921 370.266 70.8672 368.865 65.1199 372.816C59.3725 376.767 57.8791 384.575 69.7153 401.792Z" fill="#FFF100"/>
<path d="M29.3205 435.796C44.5223 450.128 62.2975 449.529 63.6738 450.827C65.05 452.124 61.8483 431.75 46.6466 417.418C31.4448 403.086 23.5003 403.367 18.7159 408.442C13.9314 413.517 14.1188 421.464 29.3205 435.796Z" fill="black"/>
<path d="M-6.77864 485.889C12.9456 492.778 28.9324 484.984 30.7181 485.608C32.5038 486.232 21.2732 468.933 1.549 462.044C-18.1752 455.156 -25.3149 458.651 -27.6145 465.236C-29.9141 471.821 -26.5028 479.001 -6.77864 485.889Z" fill="black"/>
<path d="M-6.5918 556.59C13.2354 550.004 21.1392 534.072 22.9342 533.475C24.7293 532.879 5.27344 526.035 -14.5538 532.621C-34.381 539.207 -37.9017 546.334 -35.7031 552.953C-33.5044 559.572 -26.419 563.176 -6.5918 556.59Z" fill="black"/>
<path d="M47.6147 598.989C58.5854 581.209 54.4139 563.92 55.4071 562.31C56.4003 560.701 37.0904 567.946 26.1197 585.727C15.1491 603.507 17.0267 611.232 22.9623 614.894C28.898 618.556 36.644 616.77 47.6147 598.989Z" fill="black"/>
<path d="M120.258 607.93C128.168 588.593 121.22 572.221 121.936 570.47C122.652 568.719 104.79 579.031 96.8807 598.368C88.971 617.705 92.0886 625.018 98.5441 627.659C105 630.299 112.348 627.268 120.258 607.93Z" fill="black"/>
<path d="M186.508 570.396C175.683 557.597 159.551 558.08 158.571 556.922C157.591 555.763 156.398 573.908 167.224 586.707C178.05 599.506 185.262 599.278 190.587 594.774C195.913 590.27 197.334 583.195 186.508 570.396Z" fill="black"/>
<path d="M226.091 523.215C209.753 515.321 195.45 519.922 193.971 519.207C192.492 518.493 200.734 533.986 217.072 541.88C233.41 549.774 239.799 547.707 242.289 542.552C244.78 537.398 242.429 531.108 226.091 523.215Z" fill="black"/>
<path d="M265.043 447.09C244.186 445.873 230.948 457.75 229.06 457.64C227.172 457.53 242.714 471.087 263.571 472.304C284.428 473.522 290.336 468.203 290.743 461.24C291.149 454.277 285.9 448.307 265.043 447.09Z" fill="black"/>
<path d="M131.12 357.172C135.952 377.498 151.135 386.761 151.572 388.602C152.01 390.442 160.525 371.657 155.693 351.331C150.861 331.005 144.068 326.876 137.283 328.489C130.497 330.102 126.289 336.846 131.12 357.172Z" fill="black"/>
<path d="M194.725 357.804C186.032 376.802 192.304 393.445 191.517 395.165C190.73 396.885 208.998 387.312 217.692 368.314C226.386 349.317 223.57 341.883 217.228 338.98C210.885 336.078 203.419 338.807 194.725 357.804Z" fill="black"/>
<path d="M249.876 388.366C229.886 394.44 221.575 410.165 219.766 410.715C217.956 411.265 237.229 418.607 257.219 412.532C277.209 406.457 280.912 399.423 278.884 392.749C276.856 386.076 269.865 382.291 249.876 388.366Z" fill="black"/>
<path d="M1144.42 1139.79C1266.24 1197.92 1433.83 1165.29 1390.06 1257C1346.3 1348.72 1212.07 1375.95 1090.25 1317.83C968.427 1259.7 905.151 1138.22 948.916 1046.5C992.68 954.787 1022.6 1081.67 1144.42 1139.79Z" fill="#AA7E51"/>
<path d="M1245.21 1017.14C1362.07 1082.66 1426.53 1187.49 1395.27 1243.24C1364.02 1298.98 1248.89 1284.53 1132.02 1219.01C1015.16 1153.49 924.045 1092.8 955.299 1037.06C986.554 981.31 1128.34 951.618 1245.21 1017.14Z" fill="#90C31F"/>
<path d="M1230.57 1096.43C1237.98 1096.92 1245.83 1097.95 1250.94 1103.35C1269.74 1123.21 1261.77 1151.12 1249.68 1169.46C1245.13 1176.35 1236.86 1179.28 1228.6 1179.34C1194.54 1179.57 1173.4 1187.83 1150.91 1166.42C1126.63 1143.32 1120.53 1096.89 1135.45 1077.28C1136.6 1075.77 1138.21 1074.68 1140 1074.05C1170.47 1063.39 1197.37 1094.23 1230.57 1096.43Z" fill="#FFFCCC" fill-opacity="0.64"/>
<path d="M1226.47 1057.86C1220.12 1073.06 1225.5 1086.01 1224.92 1087.39C1224.35 1088.76 1238.49 1080.74 1244.84 1065.54C1251.19 1050.34 1248.78 1044.56 1243.71 1042.44C1238.63 1040.32 1232.82 1042.67 1226.47 1057.86Z" fill="#FFF100"/>
<path d="M1186.68 1045.63C1183.68 1061.82 1191.67 1073.34 1191.4 1074.81C1191.13 1076.28 1203.26 1065.45 1206.26 1049.26C1209.26 1033.06 1205.68 1027.92 1200.28 1026.91C1194.87 1025.91 1189.68 1029.43 1186.68 1045.63Z" fill="black"/>
<path d="M1138.07 1043.11C1141.93 1059.12 1153.92 1066.38 1154.27 1067.83C1154.62 1069.28 1161.29 1054.45 1157.43 1038.44C1153.56 1022.43 1148.2 1019.19 1142.85 1020.48C1137.51 1021.77 1134.21 1027.1 1138.07 1043.11Z" fill="black"/>
<path d="M1091.3 1073.44C1104.14 1083.76 1118.07 1082.19 1119.23 1083.13C1120.39 1084.06 1116.62 1068.24 1103.78 1057.92C1090.95 1047.6 1084.72 1048.31 1081.28 1052.59C1077.83 1056.88 1078.47 1063.11 1091.3 1073.44Z" fill="black"/>
<path d="M1086.37 1127.47C1102.84 1127.14 1112.51 1116.99 1114 1116.96C1115.49 1116.93 1102.44 1107.23 1085.97 1107.56C1069.5 1107.89 1065.19 1112.43 1065.3 1117.93C1065.41 1123.42 1069.9 1127.79 1086.37 1127.47Z" fill="black"/>
<path d="M1111.48 1179.42C1127.67 1176.4 1135.55 1164.8 1137.01 1164.53C1138.48 1164.25 1124.02 1156.82 1107.83 1159.84C1091.63 1162.86 1088.12 1168.05 1089.13 1173.46C1090.14 1178.87 1095.28 1182.44 1111.48 1179.42Z" fill="black"/>
<path d="M1164.65 1207.28C1168.51 1194.64 1161.29 1184.16 1161.64 1183.01C1161.99 1181.87 1149.46 1188.83 1145.6 1201.47C1141.75 1214.11 1144.98 1218.79 1150.24 1220.4C1155.5 1222 1160.8 1219.92 1164.65 1207.28Z" fill="black"/>
<path d="M1212.82 1213.35C1211.07 1199.15 1201.91 1191.64 1201.76 1190.36C1201.6 1189.07 1194.85 1201.15 1196.6 1215.35C1198.35 1229.55 1202.45 1232.9 1206.93 1232.35C1211.41 1231.79 1214.57 1227.55 1212.82 1213.35Z" fill="black"/>
<path d="M1279.9 1206.64C1271.8 1192.3 1258.27 1188.6 1257.54 1187.3C1256.81 1186.01 1254.46 1202.1 1262.57 1216.44C1270.67 1230.78 1276.72 1232.42 1281.51 1229.71C1286.29 1227.01 1288.01 1220.98 1279.9 1206.64Z" fill="black"/>
<path d="M1282.27 1079.49C1270.86 1091.37 1271.21 1105.39 1270.18 1106.47C1269.15 1107.54 1285.23 1105.16 1296.64 1093.27C1308.04 1081.39 1307.87 1075.12 1303.91 1071.32C1299.94 1067.51 1293.67 1067.6 1282.27 1079.49Z" fill="black"/>
<path d="M1309.02 1121.9C1292.72 1124.26 1284.37 1135.52 1282.9 1135.74C1281.42 1135.95 1295.57 1143.97 1311.87 1141.61C1328.17 1139.25 1331.89 1134.21 1331.11 1128.77C1330.32 1123.33 1325.32 1119.55 1309.02 1121.9Z" fill="black"/>
<path d="M1312.33 1171.5C1299.77 1160.85 1285.8 1162.06 1284.66 1161.1C1283.52 1160.13 1286.89 1176.04 1299.46 1186.69C1312.02 1197.34 1318.27 1196.79 1321.82 1192.59C1325.38 1188.4 1324.9 1182.15 1312.33 1171.5Z" fill="black"/>
<path d="M1229.93 2369.45C1320.18 2469.81 1487.48 2503.87 1411.92 2571.83C1336.35 2639.78 1201.93 2613.5 1111.68 2513.14C1021.42 2412.77 1009.52 2276.32 1085.08 2208.37C1160.65 2140.42 1139.68 2269.08 1229.93 2369.45Z" fill="#AA7E51"/>
<path d="M1370.02 2294.76C1452.86 2400.06 1472.23 2521.59 1422.01 2561.11C1371.78 2600.62 1270.97 2543.16 1188.13 2437.87C1105.29 2332.57 1044.37 2241.61 1094.6 2202.09C1144.83 2162.57 1287.17 2189.47 1370.02 2294.76Z" fill="#90C31F"/>
<path d="M1326.11 2362.39C1332.77 2365.69 1339.63 2369.65 1342.28 2376.59C1352.04 2402.14 1333.99 2424.87 1315.79 2437.17C1308.95 2441.8 1300.18 2441.34 1292.53 2438.22C1260.98 2425.39 1238.3 2424.92 1225.72 2396.53C1212.15 2365.89 1224.3 2320.67 1245.59 2308.27C1247.23 2307.32 1249.14 2306.92 1251.03 2307.03C1283.26 2308.86 1296.29 2347.64 1326.11 2362.39Z" fill="#FFFCCC" fill-opacity="0.64"/>
<path d="M1337.11 2325.2C1325.42 2336.81 1325.43 2350.83 1324.37 2351.88C1323.31 2352.93 1339.45 2350.94 1351.14 2339.33C1362.83 2327.73 1362.81 2321.46 1358.94 2317.56C1355.06 2313.66 1348.8 2313.6 1337.11 2325.2Z" fill="#FFF100"/>
<path d="M1305.04 2298.66C1296.07 2312.47 1299.03 2326.17 1298.22 2327.42C1297.41 2328.67 1312.76 2323.32 1321.74 2309.51C1330.72 2295.7 1329.38 2289.58 1324.77 2286.58C1320.16 2283.58 1314.02 2284.85 1305.04 2298.66Z" fill="black"/>
<path d="M1261.1 2277.7C1258.54 2293.97 1266.83 2305.28 1266.6 2306.75C1266.37 2308.22 1278.21 2297.08 1280.77 2280.81C1283.34 2264.54 1279.62 2259.49 1274.19 2258.63C1268.76 2257.78 1263.67 2261.43 1261.1 2277.7Z" fill="black"/>
<path d="M1206.29 2287.8C1214.19 2302.25 1227.66 2306.14 1228.37 2307.45C1229.09 2308.76 1231.66 2292.7 1223.76 2278.25C1215.86 2263.8 1209.84 2262.07 1205.01 2264.71C1200.19 2267.34 1198.39 2273.35 1206.29 2287.8Z" fill="black"/>
<path d="M1181.03 2335.82C1196.36 2341.82 1209.19 2336.16 1210.58 2336.7C1211.97 2337.24 1203.63 2323.28 1188.29 2317.28C1172.95 2311.27 1167.23 2313.81 1165.22 2318.93C1163.21 2324.05 1165.69 2329.81 1181.03 2335.82Z" fill="black"/>
<path d="M1184.32 2393.43C1200.43 2396.84 1212.15 2389.15 1213.61 2389.46C1215.07 2389.76 1204.56 2377.36 1188.44 2373.95C1172.33 2370.53 1167.1 2373.98 1165.96 2379.36C1164.82 2384.74 1168.2 2390.01 1184.32 2393.43Z" fill="black"/>
<path d="M1222.76 2439.53C1231.16 2429.33 1228.52 2416.89 1229.28 2415.97C1230.04 2415.04 1215.8 2416.67 1207.39 2426.87C1198.99 2437.07 1200.18 2442.63 1204.42 2446.13C1208.67 2449.63 1214.35 2449.73 1222.76 2439.53Z" fill="black"/>
<path d="M1264.93 2463.6C1268.75 2449.81 1263.17 2439.37 1263.52 2438.12C1263.86 2436.87 1253 2445.44 1249.18 2459.23C1245.36 2473.01 1247.86 2477.68 1252.21 2478.88C1256.56 2480.09 1261.11 2477.38 1264.93 2463.6Z" fill="black"/>
<path d="M1329.46 2483.1C1327.47 2466.75 1316.39 2458.15 1316.21 2456.67C1316.03 2455.19 1307.7 2469.15 1309.7 2485.51C1311.69 2501.86 1316.65 2505.69 1322.1 2505.02C1327.56 2504.36 1331.45 2499.45 1329.46 2483.1Z" fill="black"/>
<path d="M1380.36 2366.56C1365.28 2373.17 1360.23 2386.25 1358.86 2386.84C1357.5 2387.44 1373.27 2391.4 1388.35 2384.8C1403.44 2378.19 1405.69 2372.34 1403.48 2367.3C1401.27 2362.26 1395.45 2359.95 1380.36 2366.56Z" fill="black"/>
<path d="M1388.82 2415.98C1372.86 2411.91 1360.84 2419.12 1359.39 2418.75C1357.95 2418.39 1367.94 2431.21 1383.9 2435.28C1399.86 2439.35 1405.24 2436.12 1406.59 2430.79C1407.95 2425.46 1404.78 2420.05 1388.82 2415.98Z" fill="black"/>
<path d="M1372.88 2463.07C1365.35 2448.42 1351.99 2444.18 1351.31 2442.86C1350.62 2441.53 1347.64 2457.51 1355.17 2472.16C1362.69 2486.82 1368.67 2488.7 1373.56 2486.19C1378.45 2483.67 1380.41 2477.72 1372.88 2463.07Z" fill="black"/>
<path d="M190.744 1863.99C288.055 1785.85 327.282 1633.86 386.966 1706.43C446.65 1779 416.147 1901.18 318.835 1979.32C221.524 2057.46 94.2538 2061.97 34.5699 1989.4C-25.1141 1916.83 93.4326 1942.13 190.744 1863.99Z" fill="#AA7E51"/>
<path d="M127.737 1731.87C229.292 1660.76 343.044 1648.69 377.467 1696.66C411.89 1744.64 353.95 1834.49 252.395 1905.59C150.84 1976.7 63.5894 2028.34 29.1662 1980.37C-5.25706 1932.39 26.1824 1802.97 127.737 1731.87Z" fill="#90C31F"/>
<path d="M188.143 1776.07C191.865 1769.71 196.147 1763.07 203.246 1760.94C226.658 1753.92 246.34 1770.63 256.972 1787.43C261.415 1794.45 260.504 1803.2 257.028 1810.68C244.075 1838.57 242.349 1859.03 215.706 1869.13C186.737 1880.11 145.478 1866.96 134.749 1846.95C133.846 1845.27 133.538 1843.34 133.753 1841.45C137.052 1812.39 172.887 1802.15 188.143 1776.07Z" fill="#FFFCCC" fill-opacity="0.64"/>
<path d="M154.516 1763.51C164.764 1774.79 177.787 1775.44 178.715 1776.46C179.642 1777.48 178.524 1762.57 168.277 1751.3C158.029 1740.02 152.207 1739.74 148.407 1743.11C144.607 1746.48 144.268 1752.23 154.516 1763.51Z" fill="#FFF100"/>
<path d="M128.404 1791.7C140.823 1800.59 153.685 1798.51 154.81 1799.32C155.934 1800.12 151.66 1785.78 139.242 1776.88C126.823 1767.99 121.075 1768.93 118.083 1773.02C115.09 1777.11 115.985 1782.81 128.404 1791.7Z" fill="black"/>
<path d="M106.951 1831.06C121.945 1834.18 132.821 1827.09 134.178 1827.38C135.536 1827.66 125.72 1816.27 110.725 1813.14C95.7307 1810.02 90.8752 1813.2 89.8328 1818.14C88.7904 1823.09 91.9559 1827.93 106.951 1831.06Z" fill="black"/>
<path d="M113.841 1881.86C127.623 1875.29 131.846 1863.1 133.094 1862.51C134.341 1861.91 119.546 1858.79 105.764 1865.37C91.9816 1871.94 90.1035 1877.39 92.334 1881.94C94.5645 1886.5 100.059 1888.43 113.841 1881.86Z" fill="black"/>
<path d="M157.292 1907.31C163.567 1893.51 158.884 1881.47 159.452 1880.22C160.02 1878.97 146.677 1885.97 140.401 1899.77C134.126 1913.57 136.229 1918.94 140.893 1921.03C145.557 1923.11 151.017 1921.11 157.292 1907.31Z" fill="black"/>
<path d="M210.946 1907C214.848 1892.37 208.234 1881.24 208.587 1879.92C208.941 1878.59 196.943 1887.66 193.041 1902.29C189.139 1916.93 192.104 1921.89 197.048 1923.19C201.993 1924.49 207.045 1921.63 210.946 1907Z" fill="black"/>
<path d="M255.515 1873.87C246.423 1865.68 234.745 1867.52 233.922 1866.78C233.098 1866.04 233.965 1879.19 243.056 1887.39C252.148 1895.58 257.368 1894.75 260.809 1891.02C264.249 1887.29 264.606 1882.07 255.515 1873.87Z" fill="black"/>
<path d="M279.777 1836.29C267.147 1832.13 257.191 1836.76 256.048 1836.39C254.905 1836.01 262.376 1846.38 275.005 1850.54C287.635 1854.7 292.081 1852.62 293.399 1848.69C294.716 1844.75 292.406 1840.45 279.777 1836.29Z" fill="black"/>
<path d="M300.817 1777.96C285.541 1779.02 277.054 1788.78 275.671 1788.88C274.288 1788.98 286.88 1797.28 302.157 1796.22C317.433 1795.16 321.219 1790.79 320.849 1785.75C320.479 1780.7 316.093 1776.9 300.817 1777.96Z" fill="black"/>
<path d="M194.885 1725.74C200.339 1739.91 212.259 1745.16 212.753 1746.44C213.247 1747.72 217.641 1733.43 212.188 1719.27C206.734 1705.1 201.402 1702.77 196.624 1704.56C191.846 1706.34 189.431 1711.58 194.885 1725.74Z" fill="black"/>
<path d="M241.176 1720.3C236.672 1734.76 242.821 1746.14 242.414 1747.45C242.006 1748.76 254.37 1740.19 258.874 1725.73C263.378 1711.26 260.621 1706.18 255.734 1704.68C250.847 1703.19 245.68 1705.84 241.176 1720.3Z" fill="black"/>
<path d="M284.182 1737.15C270.233 1743.37 265.695 1755.45 264.432 1756.01C263.169 1756.57 277.879 1760.06 291.829 1753.84C305.778 1747.62 307.797 1742.22 305.685 1737.61C303.574 1733.01 298.131 1730.93 284.182 1737.15Z" fill="black"/>
<rect width="1362" height="2787" transform="translate(2)" fill="white" fill-opacity="0.6"/>
</g>
<defs>
<clipPath id="clip0_185_31890">
<rect width="1362" height="2787" fill="white"/>
</clipPath>
</defs>
</svg>
