<svg width="358" height="324" viewBox="0 0 358 324" fill="none" xmlns="http://www.w3.org/2000/svg">
<path d="M358 147.52C358 186.291 347.713 219.87 329.963 247C298.172 295.594 242.44 323.5 179 323.5C143.251 323.5 109.949 314.639 82 298.207C56.2418 283.064 35.0297 261.491 20.6371 234.5C7.46059 209.79 0 180.537 0 147.52C0 66.061 51.0764 23.6491 118.5 7.65605C140.647 2.40284 164.557 0 189 0C239.219 0 268.524 18.2712 299 46.5C328.517 73.8412 358 94.2762 358 147.52Z" fill="#90C31F"/>
<path d="M101.961 162.418C98.5409 161.309 95.2553 159.458 93.5041 156.318C76.7224 126.221 113.345 95.9788 142.656 98.2487C144.263 98.3731 145.809 98.8372 147.309 99.4284C184.338 114.029 239.293 109.911 254.068 139.012C281.052 205.736 231.125 215.8 209.108 226.376C208.28 226.774 207.403 227.024 206.484 227.044C172.276 227.756 137.308 173.879 101.961 162.418Z" fill="#FFFCCC" fill-opacity="0.64"/>
<path d="M207.492 86.0277C203.667 94.285 206.703 101.704 206.357 102.451C206.01 103.199 214.326 99.2232 218.151 90.9659C221.977 82.7085 220.614 79.3946 217.671 78.0309C214.727 76.6673 211.318 77.7703 207.492 86.0277Z" fill="black"/>
<path d="M124.702 216.069C129.991 208.663 137.94 207.636 138.419 206.966C138.898 206.295 139.551 215.489 134.263 222.895C128.975 230.302 125.42 230.755 122.78 228.87C120.14 226.985 119.414 223.476 124.702 216.069Z" fill="black"/>
<path d="M238.087 101.827C232.732 109.186 234.273 117.052 233.788 117.719C233.303 118.385 242.231 116.097 247.585 108.738C252.94 101.379 252.245 97.864 249.622 95.9555C246.999 94.0471 243.441 94.4682 238.087 101.827Z" fill="black"/>
<path d="M150.755 231.571C154.507 223.28 162.107 220.732 162.446 219.981C162.786 219.23 165.209 228.123 161.458 236.414C157.706 244.705 154.307 245.839 151.351 244.502C148.396 243.164 147.004 239.863 150.755 231.571Z" fill="black"/>
<path d="M265.623 124.095C258.774 130.087 258.536 138.1 257.916 138.642C257.296 139.185 266.509 138.928 273.359 132.936C280.208 126.944 280.308 123.362 278.172 120.92C276.036 118.479 272.473 118.103 265.623 124.095Z" fill="black"/>
<path d="M181.313 248.631C183.138 239.715 189.986 235.549 190.151 234.742C190.316 233.934 194.646 242.071 192.821 250.986C190.996 259.902 187.932 261.759 184.754 261.109C181.576 260.458 179.488 257.547 181.313 248.631Z" fill="black"/>
<path d="M224.456 247.099C221.241 238.585 224.809 231.407 224.518 230.636C224.227 229.865 232.231 234.435 235.446 242.949C238.661 251.462 237.061 254.668 234.026 255.814C230.992 256.96 227.672 255.612 224.456 247.099Z" fill="black"/>
<path d="M66.5089 148.99C75.5891 149.597 81.4236 144.1 82.2456 144.155C83.0677 144.21 76.3723 137.876 67.2921 137.269C58.2118 136.662 55.6079 139.124 55.3916 142.36C55.1753 145.597 57.4286 148.383 66.5089 148.99Z" fill="black"/>
<path d="M261.436 227.823C255.287 221.114 255.931 213.124 255.374 212.517C254.817 211.909 263.946 213.177 270.095 219.886C276.245 226.594 275.951 230.166 273.559 232.357C271.168 234.549 267.585 234.532 261.436 227.823Z" fill="black"/>
<path d="M70.3986 109.082C78.6029 113.02 86.0624 110.085 86.8051 110.442C87.5479 110.798 83.6863 102.43 75.4821 98.4915C67.2778 94.5533 63.9455 95.8707 62.5418 98.7951C61.138 101.72 62.1944 105.144 70.3986 109.082Z" fill="black"/>
<path d="M282.738 185.328C274.054 182.607 270.605 175.371 269.819 175.124C269.032 174.878 277.567 171.397 286.251 174.119C294.935 176.84 296.471 180.078 295.501 183.173C294.531 186.269 291.422 188.05 282.738 185.328Z" fill="black"/>
<path d="M104.494 82.6466C109.618 90.1675 117.544 91.3685 118.008 92.0494C118.472 92.7303 119.327 83.5533 114.203 76.0324C109.078 68.5115 105.535 67.9806 102.854 69.8071C100.173 71.6336 99.3704 75.1257 104.494 82.6466Z" fill="black"/>
<path d="M173.461 78.8872C172.011 87.8714 176.94 94.1927 176.809 95.006C176.678 95.8194 183.608 89.7434 185.058 80.7592C186.509 71.775 184.3 68.953 181.098 68.4361C177.896 67.9191 174.912 69.903 173.461 78.8872Z" fill="black"/>
<path d="M99.991 187.175C107.085 181.474 115.016 182.635 115.658 182.119C116.301 181.603 114.443 190.631 107.35 196.331C100.256 202.032 96.7111 201.507 94.6792 198.978C92.6472 196.45 92.8972 192.875 99.991 187.175Z" fill="black"/>
<path d="M140.47 77.4277C139.158 86.433 144.183 92.6779 144.064 93.4932C143.946 94.3085 150.782 88.1269 152.094 79.1215C153.406 70.1161 151.155 67.3283 147.945 66.8606C144.735 66.3928 141.782 68.4223 140.47 77.4277Z" fill="black"/>
<path d="M78.1011 166.989C85.2815 161.397 93.1941 162.68 93.8442 162.174C94.4942 161.668 92.4986 170.666 85.3182 176.257C78.1378 181.848 74.6017 181.269 72.6087 178.709C70.6158 176.15 70.9207 172.58 78.1011 166.989Z" fill="black"/>
</svg>
