<svg width="40" height="40" viewBox="0 0 40 40" fill="none" xmlns="http://www.w3.org/2000/svg">
<g clip-path="url(#clip0_169_31652)">
<path d="M28.9997 36.6667C22.1952 36.6578 15.6719 33.9508 10.8603 29.1393C6.04882 24.3278 3.34183 17.8045 3.33301 11C3.33301 8.96666 4.14074 7.01661 5.57852 5.57884C7.0163 4.14106 8.96635 3.33332 10.9997 3.33332C11.4302 3.33004 11.8601 3.36912 12.283 3.44999C12.6919 3.51049 13.0938 3.61097 13.483 3.74999C13.7568 3.84604 14.0007 4.01188 14.1907 4.23111C14.3807 4.45034 14.5102 4.71537 14.5663 4.99999L16.8497 15C16.9112 15.2714 16.9038 15.554 16.8281 15.8218C16.7524 16.0896 16.6109 16.3342 16.4163 16.5333C16.1997 16.7667 16.183 16.7833 14.133 17.85C15.7747 21.4514 18.655 24.3436 22.2497 26C23.333 23.9333 23.3497 23.9167 23.583 23.7C23.7821 23.5055 24.0267 23.3639 24.2945 23.2882C24.5624 23.2125 24.8449 23.2051 25.1163 23.2667L35.1163 25.55C35.3919 25.6139 35.6466 25.7469 35.8565 25.9364C36.0664 26.1259 36.2247 26.3658 36.3164 26.6333C36.457 27.0289 36.563 27.436 36.633 27.85C36.7001 28.2689 36.7335 28.6924 36.733 29.1167C36.7023 31.1413 35.8718 33.0716 34.423 34.4861C32.9741 35.9006 31.0245 36.6845 28.9997 36.6667Z" fill="white"/>
</g>
<defs>
<clipPath id="clip0_169_31652">
<rect width="40" height="40" fill="white"/>
</clipPath>
</defs>
</svg>
