<svg width="40" height="40" viewBox="0 0 40 40" fill="none" xmlns="http://www.w3.org/2000/svg">
<path d="M20.0003 3.33337C16.4641 3.33337 13.0727 4.73813 10.5722 7.23862C8.07175 9.7391 6.66699 13.1305 6.66699 16.6667C6.66699 25.6667 18.417 35.8334 18.917 36.2667C19.2189 36.5249 19.6031 36.6668 20.0003 36.6668C20.3976 36.6668 20.7818 36.5249 21.0837 36.2667C21.667 35.8334 33.3337 25.6667 33.3337 16.6667C33.3337 13.1305 31.9289 9.7391 29.4284 7.23862C26.9279 4.73813 23.5365 3.33337 20.0003 3.33337ZM20.0003 32.75C16.4503 29.4167 10.0003 22.2334 10.0003 16.6667C10.0003 14.0145 11.0539 11.471 12.9293 9.59564C14.8046 7.72028 17.3482 6.66671 20.0003 6.66671C22.6525 6.66671 25.196 7.72028 27.0714 9.59564C28.9468 11.471 30.0003 14.0145 30.0003 16.6667C30.0003 22.2334 23.5503 29.4334 20.0003 32.75ZM20.0003 10C18.6818 10 17.3929 10.391 16.2965 11.1236C15.2002 11.8561 14.3457 12.8973 13.8411 14.1155C13.3365 15.3337 13.2045 16.6741 13.4618 17.9673C13.719 19.2605 14.3539 20.4484 15.2863 21.3808C16.2186 22.3131 17.4065 22.948 18.6997 23.2053C19.9929 23.4625 21.3334 23.3305 22.5515 22.8259C23.7697 22.3213 24.8109 21.4668 25.5435 20.3705C26.276 19.2742 26.667 17.9853 26.667 16.6667C26.667 14.8986 25.9646 13.2029 24.7144 11.9527C23.4641 10.7024 21.7684 10 20.0003 10ZM20.0003 20C19.3411 20 18.6966 19.8045 18.1484 19.4383C17.6003 19.072 17.173 18.5514 16.9207 17.9423C16.6684 17.3332 16.6024 16.663 16.731 16.0164C16.8597 15.3698 17.1771 14.7759 17.6433 14.3097C18.1095 13.8435 18.7034 13.526 19.35 13.3974C19.9966 13.2688 20.6669 13.3348 21.2759 13.5871C21.885 13.8394 22.4056 14.2666 22.7719 14.8148C23.1382 15.363 23.3337 16.0074 23.3337 16.6667C23.3337 17.5508 22.9825 18.3986 22.3573 19.0237C21.7322 19.6489 20.8844 20 20.0003 20Z" fill="white"/>
</svg>
