<svg width="553" height="562" viewBox="0 0 553 562" fill="none" xmlns="http://www.w3.org/2000/svg">
<path d="M270.865 253.243C362.11 344.515 523.573 368.587 454.854 437.286C386.135 505.985 256.458 487.686 165.213 396.414C73.9686 305.142 55.7079 175.46 124.427 106.761C193.146 38.0626 179.62 161.971 270.865 253.243Z" fill="#AA7E51"/>
<path d="M400.853 174.857C485.271 271.211 509.908 386.27 463.946 426.538C417.984 466.806 318.828 417.035 234.41 320.68C149.992 224.326 87.2381 140.547 133.2 100.278C179.162 60.0104 316.435 78.5024 400.853 174.857Z" fill="#90C31F"/>
<path d="M367.452 243.541C370.884 244.615 374.16 246.476 375.999 249.566C392.709 277.638 370.625 304.735 351.216 317.086C347.843 319.232 343.63 319.282 339.896 317.853C306.039 304.898 282.482 307.412 268.215 279.311C253.429 250.189 263.394 205.249 283.888 193.323C284.682 192.861 285.595 192.62 286.513 192.592C320.084 191.581 334.258 233.16 367.452 243.541Z" fill="#FFFCCC" fill-opacity="0.64"/>
<path d="M370.967 205.585C360.393 217.256 361.109 230.643 360.152 231.7C359.194 232.756 374.502 230.039 385.077 218.368C395.651 206.697 395.321 200.714 391.425 197.184C387.529 193.654 381.542 193.914 370.967 205.585Z" fill="#FFF100" fill-opacity="0.46"/>
<path d="M339.011 181.854C331.137 195.493 334.661 208.428 333.948 209.663C333.235 210.898 347.625 205.013 355.5 191.374C363.374 177.735 361.789 171.956 357.236 169.327C352.683 166.698 346.886 168.215 339.011 181.854Z" fill="black"/>
<path d="M295.996 164.071C294.366 179.736 302.858 190.11 302.711 191.528C302.563 192.947 313.303 181.706 314.933 166.041C316.562 150.377 312.759 145.746 307.53 145.202C302.3 144.658 297.625 148.407 295.996 164.071Z" fill="black"/>
<path d="M244.17 176.475C252.443 189.877 265.502 192.909 266.251 194.122C267 195.335 268.644 179.875 260.371 166.474C252.098 153.073 246.259 151.728 241.785 154.489C237.312 157.251 235.897 163.074 244.17 176.475Z" fill="black"/>
<path d="M222.472 223.601C237.419 228.562 249.377 222.501 250.73 222.95C252.084 223.399 243.416 210.492 228.469 205.531C213.522 200.57 208.182 203.288 206.526 208.278C204.869 213.267 207.524 218.639 222.472 223.601Z" fill="black"/>
<path d="M228.525 278.442C244.083 280.888 254.887 272.95 256.296 273.171C257.704 273.393 247.04 262.08 231.482 259.634C215.924 257.189 211.101 260.745 210.284 265.939C209.468 271.132 212.967 275.997 228.525 278.442Z" fill="black"/>
<path d="M267.555 320.524C275.065 310.361 271.91 298.612 272.59 297.692C273.27 296.772 259.753 299.046 252.243 309.209C244.733 319.372 246.152 324.623 250.381 327.748C254.609 330.872 260.046 330.687 267.555 320.524Z" fill="black"/>
<path d="M309.042 341.375C311.996 328.02 306.138 318.327 306.406 317.118C306.673 315.909 296.738 324.644 293.784 338C290.829 351.355 293.455 355.682 297.668 356.614C301.881 357.546 306.087 354.73 309.042 341.375Z" fill="black"/>
<path d="M371.642 356.736C368.915 341.225 357.904 333.576 357.657 332.172C357.41 330.768 350.163 344.523 352.891 360.034C355.618 375.545 360.545 378.955 365.723 378.045C370.902 377.134 374.37 372.248 371.642 356.736Z" fill="black"/>
<path d="M414.356 242.883C400.284 249.955 396.125 262.7 394.851 263.341C393.577 263.981 408.834 266.967 422.906 259.894C436.978 252.821 438.827 247.122 436.466 242.424C434.105 237.726 428.427 235.81 414.356 242.883Z" fill="black"/>
<path d="M424.933 289.649C409.488 286.569 398.369 294.059 396.971 293.78C395.572 293.501 405.765 305.241 421.21 308.32C436.655 311.4 441.62 308.044 442.648 302.888C443.676 297.732 440.378 292.728 424.933 289.649Z" fill="black"/>
<path d="M412.086 335.406C404.16 321.797 391.183 318.43 390.466 317.198C389.748 315.966 387.708 331.379 395.634 344.988C403.56 358.597 409.363 360.092 413.906 357.446C418.449 354.8 420.012 349.016 412.086 335.406Z" fill="black"/>
</svg>
