<svg width="106" height="106" viewBox="0 0 106 106" fill="none" xmlns="http://www.w3.org/2000/svg">
<circle cx="53" cy="53" r="53" fill="#FEBE8C"/>
<path d="M50.4572 49.2564C64.1937 62.997 88.5012 66.621 78.1558 76.9633C67.8105 87.3056 48.2883 84.5507 34.5518 70.8102C20.8153 57.0696 18.0663 37.5466 28.4116 27.2043C38.757 16.862 36.7207 35.5158 50.4572 49.2564Z" fill="#AA7E51"/>
<path d="M70.0263 37.4557C82.735 51.9614 86.4441 69.283 79.5247 75.3452C72.6054 81.4074 57.6779 73.9145 44.9691 59.4088C32.2604 44.9031 22.813 32.2905 29.7324 26.2283C36.6517 20.1662 57.3175 22.9501 70.0263 37.4557Z" fill="#90C31F"/>
<path d="M60.9986 45.3147C63.6679 47.7237 67.8719 49.7804 66.9853 53.2651C66.8259 53.8917 66.5724 54.4936 66.2523 55.0617C64.2896 58.5447 59.5666 58.5433 55.7362 57.3982C53.2765 56.6628 51.396 55.8159 50.0582 53.1809C48.0685 49.262 49.056 43.4405 51.4914 40.9666C52.1357 40.3121 53.0844 40.0498 53.9889 40.2095C56.7984 40.7056 58.7009 43.2411 60.9986 45.3147Z" fill="#FFFCCC" fill-opacity="0.64"/>
<path d="M65.5271 42.0817C63.9352 43.8387 64.043 45.8541 63.8989 46.0132C63.7547 46.1723 66.0593 45.7632 67.6512 44.0062C69.2432 42.2492 69.1935 41.3485 68.6069 40.817C68.0204 40.2856 67.1191 40.3247 65.5271 42.0817Z" fill="#FFF100" fill-opacity="0.46"/>
<path d="M60.7164 38.5092C59.5309 40.5625 60.0614 42.5098 59.9541 42.6957C59.8468 42.8816 62.0132 41.9956 63.1986 39.9423C64.3841 37.889 64.1455 37.019 63.46 36.6233C62.7746 36.2275 61.9018 36.4559 60.7164 38.5092Z" fill="black"/>
<path d="M54.2405 35.8321C53.9953 38.1903 55.2737 39.7521 55.2515 39.9656C55.2292 40.1791 56.8461 38.4868 57.0914 36.1286C57.3367 33.7704 56.7642 33.0733 55.9769 32.9914C55.1896 32.9095 54.4858 33.4738 54.2405 35.8321Z" fill="black"/>
<path d="M46.4384 37.6994C47.6838 39.7169 49.6499 40.1734 49.7626 40.3561C49.8754 40.5387 50.1228 38.2113 48.8774 36.1938C47.6319 34.1763 46.7528 33.9738 46.0793 34.3895C45.4058 34.8053 45.193 35.6819 46.4384 37.6994Z" fill="black"/>
<path d="M43.1718 44.794C45.422 45.5409 47.2223 44.6284 47.426 44.696C47.6297 44.7636 46.3249 42.8205 44.0747 42.0736C41.8245 41.3267 41.0205 41.7359 40.7712 42.4871C40.5218 43.2383 40.9216 44.0471 43.1718 44.794Z" fill="black"/>
<path d="M44.0831 53.0501C46.4253 53.4183 48.0518 52.2232 48.2638 52.2566C48.4758 52.2899 46.8704 50.5868 44.5282 50.2186C42.186 49.8504 41.4599 50.3858 41.337 51.1677C41.2141 51.9496 41.7409 52.6819 44.0831 53.0501Z" fill="black"/>
<path d="M49.9588 59.3853C51.0894 57.8553 50.6145 56.0865 50.7168 55.948C50.8192 55.8095 48.7842 56.1519 47.6536 57.6819C46.5231 59.2119 46.7367 60.0024 47.3733 60.4728C48.0099 60.9432 48.8283 60.9153 49.9588 59.3853Z" fill="black"/>
<path d="M56.2045 62.5243C56.6493 60.5138 55.7674 59.0545 55.8077 58.8725C55.8479 58.6905 54.3523 60.0056 53.9075 62.0162C53.4627 64.0267 53.8579 64.6782 54.4922 64.8185C55.1265 64.9589 55.7597 64.5349 56.2045 62.5243Z" fill="black"/>
<path d="M65.6287 64.8369C65.2181 62.5018 63.5605 61.3503 63.5233 61.1389C63.4862 60.9275 62.3952 62.9982 62.8058 65.3333C63.2164 67.6684 63.9581 68.1819 64.7377 68.0448C65.5172 67.9077 66.0393 67.172 65.6287 64.8369Z" fill="black"/>
<path d="M72.0591 47.6967C69.9406 48.7615 69.3144 50.6802 69.1226 50.7766C68.9308 50.873 71.2278 51.3225 73.3462 50.2577C75.4647 49.193 75.7431 48.3349 75.3877 47.6277C75.0322 46.9205 74.1775 46.632 72.0591 47.6967Z" fill="black"/>
<path d="M73.6515 54.7372C71.3264 54.2735 69.6524 55.4011 69.4419 55.3591C69.2314 55.3171 70.7659 57.0845 73.091 57.5481C75.4162 58.0117 76.1636 57.5065 76.3183 56.7303C76.4731 55.9541 75.9767 55.2008 73.6515 54.7372Z" fill="black"/>
<path d="M71.7174 61.6258C70.5242 59.577 68.5706 59.0701 68.4625 58.8846C68.3545 58.6991 68.0474 61.0194 69.2406 63.0683C70.4338 65.1171 71.3074 65.3421 71.9913 64.9438C72.6753 64.5455 72.9106 63.6746 71.7174 61.6258Z" fill="black"/>
</svg>
