<svg width="162" height="109" viewBox="0 0 162 109" fill="none" xmlns="http://www.w3.org/2000/svg">
<path d="M36.7218 65.412C50.7499 80.8945 49.8 98.6544 51.07 100.056C52.34 101.458 32.0328 97.8533 18.0047 82.3708C3.97659 66.8883 4.41457 58.951 9.58316 54.2679C14.7517 49.5849 22.6937 49.9295 36.7218 65.412Z" fill="#FFF100"/>
<path d="M155.922 26.1846C159.036 46.8437 148.415 61.1094 148.697 62.9797C148.979 64.85 134.061 50.6082 130.947 29.9491C127.833 9.28994 132.591 2.9217 139.488 1.88217C146.384 0.842645 152.808 5.52547 155.922 26.1846Z" fill="#FFF100"/>
<path d="M88.1137 37.9327C98.5599 56.0262 93.8848 73.186 94.8306 74.824C95.7763 76.4621 76.6865 68.6548 66.2402 50.5614C55.794 32.468 57.8965 24.8016 63.9367 21.3143C69.9769 17.827 77.6674 19.8393 88.1137 37.9327Z" fill="#FEBE8C"/>
</svg>
